<svg xmlns="http://www.w3.org/2000/svg" xmlns:xlink="http://www.w3.org/1999/xlink" width="375.791" height="376" viewBox="0 0 375.791 376"><defs><linearGradient id="a" x1="-102.237" y1="-2.333" x2="-102.237" y2="4.029" gradientUnits="objectBoundingBox"><stop offset="0" stop-color="#ffac85"/><stop offset="1" stop-color="#ff8e59"/></linearGradient></defs><g transform="translate(-174.158 -0.558)"><ellipse cx="64.852" cy="12.901" rx="64.852" ry="12.901" transform="translate(283.151 350.757)" fill="#2a94f4" opacity="0.1"/><path d="M345.562,5.056a171.4,171.4,0,1,0,171.4,171.4A171.4,171.4,0,0,0,345.562,5.056ZM457.169,191.1,298.527,300.9a12.383,12.383,0,0,1-19.421-10.181V71.162a12.378,12.378,0,0,1,19.421-10.181L457.169,170.776A12.349,12.349,0,0,1,457.169,191.1Z" fill="#2a94f4" opacity="0.1"/><path d="M330.325,54.461s-14.679-.314-16.7,28.033-5.23,37.621-22.628,44.594-22.768,29.881-9.937,40.619,66.107,46.93,72.941,3.7,14.26-26.185,25.418-42.851c20.083-29.985-13.633-69.733-26.15-72.278A94.789,94.789,0,0,0,330.325,54.461Z" fill="#0b4870"/><path d="M365.3,120.6l.349-.523.279-.418.384-.662.8-1.29,1.569-2.545,3.1-5.091,6.206-10.181c4.114-6.8,8.228-13.563,12.343-20.5l.384-.662.418-.767c.279-.523.593-1.081.837-1.569.453-.976.941-1.953,1.36-2.894.837-1.918,1.6-3.8,2.406-5.683,1.5-3.766,2.929-7.5,4.323-11.262,2.789-7.5,6.659-22.977,6.659-22.977l-5.823-1.708s-8.089,13.354-11.122,20.606c-1.534,3.626-3.068,7.252-4.672,10.774-.8,1.778-1.6,3.522-2.441,5.2-.418.872-.837,1.639-1.255,2.441-.209.384-.418.7-.593,1.046l-.314.523-.384.593c-4.289,6.52-8.751,13.145-13.18,19.7L353.825,112.1l-.349.523a7.156,7.156,0,1,0,11.855,8.019C365.261,120.673,365.3,120.6,365.3,120.6Z" fill="#b97a59"/><path d="M406.717,34.553s3.243-11.471-1.011-15.9c-4.254-4.393-8.926-.767-8.019,4.393s2.72,10.634,1.848,12.866c-.837,2.2,2.72,2.929,2.72,2.929Z" fill="#b97a59"/><path d="M360.136,114.083c.314.139,2.824,23.5,1.918,26.917-.767,2.894-4.637,8.751-6.834,11.82-.593-4.01-1.185-7.984-1.708-11.959l-1.36-10.495c.139-.732.314-1.464.488-2.231C355.08,117.151,359.822,113.978,360.136,114.083Z" fill="#f5a171" opacity="0.5"/><path d="M365.052,145.742c-.662,2.789-.418,27.684.453,41.875H328.651c.558-.837,6.381-16.875,5.056-20.85-3.661-10.983-11.088-33.263-11.715-35.634-.837-3.173.174-19.316.837-19.978s12.9-5.683,13.947-5.579,11.855-2.72,11.855-2.72l4.568,4.079c.453.1,4.01-1.081,6.45.662a1.525,1.525,0,0,0,.279.593c3.243,4.358,8.054,22.907,8.4,23.5C369.131,133.19,371.572,140.721,365.052,145.742Z" fill="#ffbe55"/><path d="M353.162,106.866l.035.07H332.975a.594.594,0,0,1-.035-.244c6.276-4.568-1.011-26.429-1.011-28.381,0,0,16.98,3.905,21.373,8.542C342.6,99.23,353.162,106.866,353.162,106.866Z" fill="#a56950"/><path d="M329.174,85.109c-.941-4.219-2.022-8.4-2.022-12.691,0-28.381,32.251-19.49,32.251-7.636,0,7.113,1.011,19.874-3.556,28.242a8.471,8.471,0,0,1-9.24,4.219c-9-1.953-16.039-5.858-17.4-11.994Z" fill="#b97a59"/><path d="M332.905,120.08l-.209.593-.209.453-.314.7-.593,1.395-1.185,2.754-2.371,5.474-4.742,10.948c-3.173,7.322-6.311,14.539-9.588,21.9l-.314.7-.384.8c-.279.523-.523,1.081-.8,1.569-.523.941-1.046,1.918-1.6,2.789q-1.621,2.667-3.243,5.23c-2.2,3.417-4.428,6.729-6.659,10.042-4.5,6.625-14.888,18.723-14.888,18.723l-4.777-3.766s6.206-14.3,10.39-20.99c2.057-3.347,4.114-6.694,6.1-10.042q1.464-2.51,2.824-5.021c.453-.837.837-1.639,1.255-2.441.174-.384.314-.732.488-1.081l.244-.558.279-.662c2.859-7.287,5.683-14.749,8.473-22.14l8.194-21.861.209-.593a7.15,7.15,0,0,1,13.389,5.021C332.94,120.01,332.905,120.045,332.905,120.08Z" fill="#b97a59"/><path d="M286.637,203.585s-7.5,9.274-13.528,8.368-5.788-6.834-1.046-9.065,10.251-3.94,11.576-5.927,3.94.523,3.94.523Z" fill="#b97a59"/><path d="M354.836,183.955a10.752,10.752,0,0,0,10.146-7.078l3.243,12.866c-1.953,1.639-5.683.8-5.858,3.347a14.517,14.517,0,0,1-4.463-.558,132,132,0,0,0-20.118-3.522s-1.081-3.382-1.987-5.544a67.568,67.568,0,0,0-3.7-6.59S347.026,183.955,354.836,183.955Z" fill="#f6e8ff"/><path d="M387.785,361.112a1,1,0,0,0,.384-1.918c-3.277-1.43-6.869-3.1-8.647-3.312-2.72-.349-10.739-.349-10.739-.349s-.837,5.962-.349,5.962C368.783,361.53,380.777,361.286,387.785,361.112Z" fill="#0b4870"/><path d="M330.151,363.239a1,1,0,0,0,.384-1.918c-3.277-1.43-6.869-3.1-8.647-3.312-2.72-.349-10.739-.349-10.739-.349s-.837,5.962-.349,5.962C311.148,363.657,323.142,363.378,330.151,363.239Z" fill="#0b4870"/><path d="M398,257.8l-32.949-80.96-32.914-.349c-1.116,2.127-9.553,13.842-10.669,24.651-1.046,10.007,15.2,58.576,18.863,72.557.1-.035-29.044,83.993-29.044,83.993l7.88-.035,36.052-72.976a30.907,30.907,0,0,0,3.626-20.118l-3.975-51.6c9.693,20.641,26.22,52.718,27.022,54.5-8.054,39.922-13.249,88.038-13.249,88.038l8.089.174,22.384-77.438A30.926,30.926,0,0,0,398,257.8Z" fill="#0e538c"/><path d="M331.475,78.24a3.825,3.825,0,1,1-3.8-4.254A4.059,4.059,0,0,1,331.475,78.24Z" fill="#f5a171"/><path d="M336.427,62.132s1.325,15.027-8.717,13.319c0,0-10.565-4.881,0-18.235s30.682-3.033,32.53,5.683a35.55,35.55,0,0,1-1.011,16.98s1.883-14.993-3.417-18.026C349.153,58.053,345.562,69.384,336.427,62.132Z" fill="#0b4870"/><path d="M324.607,83.261c-.314-2.964,1.708-5.265,4.5-5.125a6.309,6.309,0,0,1,5.613,5.648c.314,2.964-1.708,5.265-4.5,5.125A6.374,6.374,0,0,1,324.607,83.261Z" fill="url(#a)"/><ellipse cx="7.182" cy="8.159" rx="7.182" ry="8.159" transform="translate(321.364 74.649)" fill="#341675"/><path d="M338.693,81.692c0,5.544-4.742,10.042-9.449,10.042s-8.507-4.5-8.507-10.042,3.8-10.042,8.507-10.042C333.986,71.651,338.693,76.148,338.693,81.692Z" fill="#a1c9e2"/><ellipse cx="7.845" cy="10.042" rx="7.845" ry="10.042" transform="translate(320.737 71.651)" fill="#f7f7f7"/><path d="M325.653,72.8c0-.384.523-18.688,17.224-20.083,3.591-.349,13.528,3.975,13.528,3.975s-13.528-5.614-21.2,3.033c-3.87,4.393-4.812,13.284-4.812,13.284Z" fill="#f7f7f7"/><path d="M219.973,307.034h0l-.209-39.12h-2.127l.174,34.378a9.321,9.321,0,0,0-6.45-2.441c-4.742,0-8.577,3.208-8.577,7.148s3.835,7.078,8.577,7.078c4.707,0,8.507-2.929,8.577-7.113h.07v.07Z" fill="#ffbe55"/><path d="M428.3,161.955a6.609,6.609,0,0,0-6.346-3.835,8.357,8.357,0,0,0-4.568,1.36,7.639,7.639,0,0,0-2.371,2.476l.139-29.637h-2.127l-.209,39.225h0v1.743l1.081.035s.349-.035.907-.035h0a22.715,22.715,0,0,0,8.263-1.325C427.463,170.113,429.764,165.651,428.3,161.955Zm-6.1,7.95a19.935,19.935,0,0,1-7.078,1.185c.139-5.125,1.22-8.124,3.522-9.658a6.019,6.019,0,0,1,3.277-.976,4.352,4.352,0,0,1,4.219,2.371C427.184,165.337,425.406,168.544,422.2,169.9Z" fill="#0b4870"/><path d="M508.388,212.755c3.452,0,6.276,2.162,6.276,4.846s-2.824,4.846-6.276,4.846-6.276-2.162-6.276-4.846c0-2.65,2.824-4.846,6.276-4.846m0-2.3c-4.742,0-8.577,3.208-8.577,7.148s3.835,7.148,8.577,7.148,8.577-3.208,8.577-7.148-3.835-7.148-8.577-7.148Z" fill="#ffbe55"/><path d="M305.709,40.271h0L305.57,1.185h0V.558L275.445,4.289l.035,4.672.139,30.055a9.321,9.321,0,0,0-6.45-2.441c-4.742,0-8.577,3.208-8.577,7.148s3.835,7.078,8.577,7.078c4.707,0,8.507-2.894,8.577-7.113h0v.07h0l-.1-35.041,25.8-3.347.139,30.194a9.321,9.321,0,0,0-6.45-2.441c-4.742,0-8.577,3.208-8.577,7.148s3.835,7.078,8.577,7.078c4.707,0,8.507-2.894,8.577-7.113h0Z" fill="#ffbe55"/><path d="M470.1,59.935c-1.743-1.011-3.905-.628-4.742.8h-.035L457.8,73.882l-10.425-4.323,6.52-11.366a4.15,4.15,0,0,0,1.883,2.3c1.778,1.011,3.905.662,4.777-.837.872-1.464.1-3.487-1.674-4.533-1.743-1.011-3.905-.628-4.742.8H454.1L445.7,70.6h0l-.139.244,12.1,5.125.976-1.743L465.119,62.9A4.15,4.15,0,0,0,467,65.2c1.778,1.011,3.905.662,4.777-.8S471.883,60.981,470.1,59.935Z" fill="#0b4870"/><path d="M230.816,99.683a3.478,3.478,0,0,0-3.243,3.556h-.035l2.127,15.027-10.878,2.964-1.848-12.97a4.1,4.1,0,0,0,2.929.662c2.022-.279,3.487-1.883,3.243-3.591s-2.057-2.824-4.114-2.545a3.478,3.478,0,0,0-3.243,3.556h-.035l2.406,16.736h0l.035.279,12.726-3.382-.314-1.987-1.848-12.9a4.1,4.1,0,0,0,2.929.662c2.022-.279,3.487-1.883,3.243-3.556S232.838,99.4,230.816,99.683Z" fill="#0b4870"/><path d="M481.366,321.329h0l-.139-39.12h0v-.662L451.1,285.312l.035,4.637.139,30.09a9.321,9.321,0,0,0-6.45-2.441c-4.742,0-8.577,3.208-8.577,7.148s3.835,7.043,8.577,7.043c4.672,0,8.473-2.894,8.577-7.113h0v0l-.1-30.578,25.8-3.522.1,25.976a9.321,9.321,0,0,0-6.45-2.441c-4.742,0-8.577,3.208-8.577,7.148s3.835,7.252,8.577,7.252c4.672,0,8.473-3.068,8.577-6.9h0v-.279Zm-28.068-29.5V289.74l25.8-3.347v1.918Z" fill="#ffbe55"/><path d="M544.37,117.326c-3.033,0-5.509,2.127-5.579,4.6h0l.07,19.839-16.736,2.3-.07-16.875a6.008,6.008,0,0,0,4.184,1.569c3.068,0,5.579-2.092,5.579-4.637,0-2.58-2.476-4.6-5.579-4.6-3.033,0-5.509,2.127-5.579,4.6h0l.1,25.313h0v.453l19.56-2.441-.035-3-.1-19.525a6.007,6.007,0,0,0,4.184,1.569c3.068,0,5.579-2.057,5.579-4.637C549.949,119.383,547.438,117.326,544.37,117.326ZM538.861,143.3v1.36l-16.736,2.2v-1.22Z" fill="#ffbe55"/><path d="M205.782,181.585c-3.033,0-5.509,2.127-5.579,4.6h0l.07,19.839-16.736,2.3-.07-16.875a6.008,6.008,0,0,0,4.184,1.569c3.068,0,5.579-2.092,5.579-4.637,0-2.58-2.476-4.6-5.579-4.6-3.033,0-5.509,2.127-5.579,4.6h0l.1,25.313h0v.453l19.56-2.441-.035-3-.1-19.525a6.008,6.008,0,0,0,4.184,1.569c3.068,0,5.579-2.057,5.579-4.637C211.361,183.642,208.885,181.585,205.782,181.585Zm-5.474,25.976v1.36l-16.736,2.2V209.9Z" fill="#ffbe55"/></g></svg>