<svg xmlns="http://www.w3.org/2000/svg" width="400" height="378.043" viewBox="0 0 400 378.043"><g transform="translate(36.582)"><path d="M296.767,82.317a65.511,65.511,0,0,1,29.7,7.464,56.552,56.552,0,0,1,17.316,13.742c9.559,11.5,13.32,28.319,6.817,40.964-5.446,10.537-17.395,18.089-17.551,30.251-.157,14.138,15.828,23.577,29.775,26.475s29.618,3.469,40.078,13.567c9.011,8.693,11.4,22.567,8.423,34.2-3.017,11.635-10.578,21.294-19.04,29.592-21.156,20.723-48.306,34.378-76.161,45.091a492.257,492.257,0,0,1-186.915,32.446c-16.063-.351-33.967-2.283-45.211-14.4-11.361-12.206-11.714-31.612-4.27-45.574,7.4-14.006,21.077-23.4,35.377-30.251,14.261-6.849,29.579-11.635,43.487-19.187,10.5-5.708,21.234-16.552,16.807-28.231-3.173-8.3-12.458-12.294-20.646-15.674-11.557-4.742-23.075-10.318-32.517-18.66s-16.768-20.021-17.473-32.315c-.666-11.5,4.427-22.48,11.949-30.69s17.316-14.05,27.346-19.011C183.663,82.537,269.187,81.966,296.767,82.317Z" transform="translate(-74.701 -82.258)" fill="#f7f7f7"/></g><path d="M412.849,568.211H34.318A3.991,3.991,0,0,1,30.6,564.04V548.147a3.991,3.991,0,0,1,3.722-4.171H412.849a3.991,3.991,0,0,1,3.722,4.171V564.04A3.991,3.991,0,0,1,412.849,568.211Z" transform="translate(-24.171 -190.169)" fill="#f2f2f2"/><g transform="translate(327.13 254.311)"><path d="M544.033,549.073c7.8,0,11.048-6.981,12.341-14.357a68.314,68.314,0,0,0,.392-17.211h-25.5s-.039.351-.078.922C530.713,523.7,529.185,549.073,544.033,549.073Z" transform="translate(-509.518 -438.293)" fill="#b6e7ff"/><path d="M531.485,517.156c0,.615,5.72,1.142,12.733,1.142,7.052,0,12.733-.527,12.733-1.142s-5.72-1.142-12.733-1.142C537.166,516.015,531.485,516.542,531.485,517.156Z" transform="translate(-509.702 -437.945)" fill="#85ddff"/><path d="M499.628,414.139s13.438,22.919,21.508,36.925,10.186,16.9,11.126,21.426c.979,4.522,1.841,21.206,1.841,21.206h.588s-.2-14.138-.94-18.923c-.705-4.61.039-6.278.627-11.108s1.332-12.6-3.017-17.957c-4.388-5.4-3.213-10.669-4.74-14.225s-13.438-7.859-14.966-11.5C510.088,416.291,503.389,414.008,499.628,414.139Z" transform="translate(-499.628 -414.134)" fill="#2a94f4"/><path d="M499.628,414.141s4.231,5.4,7.091,7.2c2.9,1.844,4.231.22,6.425,4.61s2.312,6.366,4.31,8.605c2.037,2.239,4.427,2.371,4.623,7.332a32.784,32.784,0,0,1-.979,9.132S500.49,415.327,499.628,414.141Z" transform="translate(-499.628 -414.136)" fill="#41aaf7"/><path d="M534.822,507.01h-.588s-.2-4.566-1.8-6.805c-1.058-1.449-5.485-3.073-9.912-5.005a40.41,40.41,0,0,1-6.66-3.556c-5.132-3.644-9.99-15.367-10.421-17.474a7.315,7.315,0,0,1-.2-1.493h0c0-.571.274-.659.705-1.229.2-.263.823-.176,1.606.088a9.366,9.366,0,0,1,5.211,4.7c1.058,2.064,2.782,4.654,4.858,5.269,3.6,1.1,3.291,1.756,4.623,5.883s4.7,4.786,8.893,9.659A14.071,14.071,0,0,1,534.822,507.01Z" transform="translate(-501.404 -427.492)" fill="#2a94f4"/><path d="M522.52,495.623a40.41,40.41,0,0,1-6.66-3.556c-5.132-3.644-9.99-15.367-10.421-17.474a7.315,7.315,0,0,1-.2-1.493c0,.132.235,1.976,2.9,3.249,2.782,1.273,3.291,1.273,3.683,3.249.353,1.976.666,4.039,2.116,4.434s2.351-1.4,3.487,1.537c1.136,2.986,1.685,4,2.742,4.391s1.841-.22,2.076,2.107C522.4,493.472,522.481,494.789,522.52,495.623Z" transform="translate(-501.404 -427.915)" fill="#41aaf7"/><path d="M554.963,497.667h.705s1.41-28.363,3.33-31c1.254-1.712,5.328-4.742,10.539-7.069a47.086,47.086,0,0,0,7.875-4.215c6.073-4.3,11.832-18.221,12.341-20.68a11.622,11.622,0,0,0,.235-1.756h0c0-.659-.313-.746-.823-1.449-.235-.307-.979-.22-1.881.088a11.108,11.108,0,0,0-6.19,5.532c-1.254,2.459-3.291,5.532-5.759,6.235-4.27,1.273-3.918,2.064-5.485,6.937s-5.563,5.664-10.539,11.415C554.3,467.547,554.963,497.667,554.963,497.667Z" transform="translate(-517.118 -418.148)" fill="#2a94f4"/><path d="M576.291,460.1a47.079,47.079,0,0,0,7.875-4.215c6.073-4.3,11.832-18.221,12.341-20.68a11.616,11.616,0,0,0,.235-1.756c0,.176-.313,2.371-3.448,3.82-3.291,1.493-3.918,1.493-4.349,3.82s-.784,4.786-2.507,5.269-2.782-1.668-4.114,1.844c-1.371,3.512-2,4.7-3.252,5.181s-2.194-.22-2.468,2.459C576.408,457.554,576.33,459.135,576.291,460.1Z" transform="translate(-523.872 -418.648)" fill="#41aaf7"/><g transform="translate(21.385 80.177)"><path d="M544.033,549.367c7.8,0,11.048-6.981,12.341-14.357-7.64-3.249-17.238-8.43-25.191-16.245C530.713,523.99,529.185,549.367,544.033,549.367Z" transform="translate(-530.903 -518.765)" fill="#cce9ff"/></g></g><g transform="translate(0 282.898)"><path d="M66.283,547.173c-5.524,0-7.835-4.961-8.776-10.186a48.85,48.85,0,0,1-.274-12.206h18.1s.039.22.078.659C75.764,529.172,76.821,547.173,66.283,547.173Z" transform="translate(-32.512 -468.581)" fill="#b6e7ff"/><path d="M75.454,524.54c0,.439-4.035.79-9.05.79-4.976,0-9.05-.351-9.05-.79s4.035-.79,9.05-.79S75.454,524.1,75.454,524.54Z" transform="translate(-32.633 -468.34)" fill="#85ddff"/><path d="M37.7,451.441s9.52,16.245,15.279,26.168c5.72,9.923,7.209,11.986,7.914,15.191.666,3.205,1.293,15.06,1.293,15.06h.744s.47-10.01-.392-13.3c-.9-3.293-.548-4.566-.118-8.035.392-3.425.94-8.913-2.155-12.733S58,466.237,56.9,463.691c-1.1-2.5-9.52-5.576-10.617-8.166C45.106,452.978,40.365,451.4,37.7,451.441Z" transform="translate(-26.418 -451.44)" fill="#2a94f4"/><path d="M37.7,451.441s3.017,3.82,5.054,5.137,3.017.132,4.584,3.293c1.567,3.117,1.645,4.522,3.056,6.1,1.45,1.625,3.134,1.668,3.291,5.181a25.276,25.276,0,0,1-.666,6.5S38.289,452.319,37.7,451.441Z" transform="translate(-26.418 -451.44)" fill="#41aaf7"/><path d="M54.715,512.814h-.666s-.2-5.181-2.037-7.727c-1.175-1.625-6.229-3.469-11.2-5.664a46.094,46.094,0,0,1-7.522-4c-5.8-4.127-11.322-17.387-11.792-19.758A10.263,10.263,0,0,1,21.257,474h0c0-.659.313-.746.784-1.361.235-.307.94-.22,1.8.088a10.491,10.491,0,0,1,5.916,5.313c1.214,2.327,3.134,5.269,5.485,5.971,4.074,1.229,3.761,1.976,5.25,6.63s5.289,5.4,10.069,10.932A15.991,15.991,0,0,1,54.715,512.814Z" transform="translate(-21.218 -456.35)" fill="#2a94f4"/><path d="M40.749,499.9a46.094,46.094,0,0,1-7.522-4c-5.8-4.127-11.322-17.387-11.792-19.758a10.263,10.263,0,0,1-.235-1.668c0,.176.274,2.239,3.291,3.644,3.134,1.449,3.761,1.449,4.153,3.644s.744,4.566,2.39,5.049c1.645.439,2.664-1.625,3.957,1.756,1.293,3.337,1.92,4.522,3.1,4.961s2.076-.22,2.351,2.371C40.632,497.437,40.71,498.93,40.749,499.9Z" transform="translate(-21.2 -456.824)" fill="#41aaf7"/><g transform="translate(24.995 56.859)"><path d="M66.531,547.374c-5.524,0-7.835-4.961-8.776-10.186A57.4,57.4,0,0,0,75.62,525.641C76.012,529.373,77.07,547.374,66.531,547.374Z" transform="translate(-57.755 -525.641)" fill="#cce9ff"/></g></g><g transform="translate(143.624 39.223)"><path d="M373.5,460.146H250.016c-10.382,0-18.766-9.44-18.766-21.031V154.475c0-11.635,8.423-21.031,18.766-21.031H373.5c10.382,0,18.766,9.44,18.766,21.031v284.64C392.268,450.706,383.884,460.146,373.5,460.146Z" transform="translate(-231.25 -133.444)" fill="#b6e7ff"/><path d="M376.049,453.393H255.7c-6.308,0-11.44-5.752-11.44-12.82V160.016c0-7.069,5.132-12.82,11.44-12.82H376.088c6.307,0,11.44,5.752,11.44,12.82V440.572C387.527,447.641,382.4,453.393,376.049,453.393Z" transform="translate(-235.363 -136.658)" fill="#fff"/><path d="M282.015,145.591,289.5,156.3a14.827,14.827,0,0,0,12.027,6.718h52.027A14.827,14.827,0,0,0,365.58,156.3l7.483-10.713Z" transform="translate(-247.304 -136.283)" fill="#b6e7ff"/><path d="M258.526,190.8H379.192a5.024,5.024,0,0,1,4.7,5.269V331.3a5.024,5.024,0,0,1-4.7,5.269H258.526a5.024,5.024,0,0,1-4.7-5.269V196.067A5.024,5.024,0,0,1,258.526,190.8Z" transform="translate(-238.389 -146.849)" fill="#2a94f4"/><g transform="translate(15.436 205.083)"><rect width="130.069" height="4.391" transform="translate(0 1.756)" fill="#d3d3d3"/><rect width="73.653" height="4.391" transform="translate(0 1.756)" fill="#2a94f4"/><rect width="2.351" height="7.903" transform="translate(72.478)" fill="#cce9ff"/></g><g transform="translate(48.835 239.329)"><g transform="translate(26.111 0)"><rect width="3.839" height="13.611" fill="#ffbe55"/><rect width="3.839" height="13.611" transform="translate(7.287)" fill="#ffbe55"/></g><g transform="translate(55.573 0)"><path d="M390.371,452.4l-6.425-6.63v13.259Z" transform="translate(-383.946 -445.769)" fill="#ffbe55"/><rect width="1.371" height="13.611" transform="translate(6.425)" fill="#ffbe55"/></g><g transform="translate(0 0)"><path d="M304.647,452.4l6.425-6.63v13.259Z" transform="translate(-303.296 -445.769)" fill="#ffbe55"/><rect width="1.371" height="13.611" transform="translate(1.371 13.611) rotate(180)" fill="#ffbe55"/></g></g><path d="M358.447,228.963a1.283,1.283,0,0,0-1.019-.351L316.8,234.495a1.387,1.387,0,0,0-1.136,1.449v52.335a13.214,13.214,0,1,0,2.625,7.9c0-.351-.039-.659-.039-1.01,0-.088.039-.176.039-.263V252.321l38-5.532v26.826a13.253,13.253,0,1,0,2.586,8.079V230.1A1.694,1.694,0,0,0,358.447,228.963Z" transform="translate(-250.475 -155.684)" fill="#fff"/><path d="M366.469,237.557a1.283,1.283,0,0,0-1.019-.351l-40.627,5.883a1.387,1.387,0,0,0-1.136,1.449v52.335a13.214,13.214,0,1,0,2.625,7.9c0-.351-.039-.659-.039-1.01,0-.088.039-.176.039-.263V260.915l38-5.532v26.826a13.253,13.253,0,1,0,2.586,8.079V238.7A1.694,1.694,0,0,0,366.469,237.557Z" transform="translate(-253.011 -157.693)" fill="rgba(0,0,0,0)" stroke="#fff" stroke-miterlimit="10" stroke-width="0.573"/></g><g transform="translate(62.712 102.058)"><path d="M172.758,545.854s-11.322,9.527-12.223,14.4,24.643-2.986,22.8-14.4C176.637,541.112,172.758,545.854,172.758,545.854Z" transform="translate(-127.968 -292.173)" fill="#2a94f4"/><path d="M134.083,384.805c0,8.518,1.1,17.255,1.1,20.24-9.794,10.976-22.684,26.168-22.253,36.617s40.039,44.432,43.134,50.623c2.664-16.991-11.988-45.179-11.988-45.179l-11.126-8.562,12.458-32.358Z" transform="translate(-112.917 -255.026)" fill="#072938"/><g transform="translate(2.492 43.215)"><path d="M154.2,272a14.6,14.6,0,0,1,10.7,6.235,20.736,20.736,0,0,1,3.643,13.523c-.313,4.171-1.841,8.342-.979,12.381a11.717,11.717,0,0,0,7.483,8.342c3.408,1.317,7.013,1.317,10.578,1.581s7.248.922,10.225,3.249c4.231,3.337,6.268,9.7,6.19,15.718-.078,6.059-1.92,11.855-4.114,17.3-2.076,5.181-4.584,10.362-8.5,13.786-6.778,5.883-15.945,5.049-24.251,3.951-5.171-.659-10.382-1.361-15.279-3.469a23.249,23.249,0,0,1-12.067-11.2c-1.92-4-2.742-8.957-5.8-11.855-2.664-2.5-6.386-2.766-9.324-4.786-3.017-2.107-4.936-6.015-5.72-10.1-1.41-7.64.9-15.674,4.662-22.041s8.737-7.42,13.673-12.557c5.563-5.8,6.386-20.943,17.316-20.2Z" transform="translate(-116.561 -271.838)" fill="#0e538c"/></g><path d="M142.094,382.649l11.322,21.382s-15.514,26.212-15.162,33.544,23.546,64.673,23.35,72.752c6.5,3.512,15.553-1.668,20.372-6.542-2.037-8.43-21.117-63.18-27.973-66.21,6.112-5.313,37.493-40.657,12.145-61.995C149.773,377.073,142.094,382.649,142.094,382.649Z" transform="translate(-120.927 -252.87)" fill="#093a56"/><path d="M196.938,230.848a43.557,43.557,0,0,1-5.877,2.2s-.118,26.431-6.817,46.672c-2.7,8.166-6.464,15.279-11.753,19.318-8.737,17.606-13.673,26.08-13.359,29.944s5.524,7.464,7.365,12.074c-3.408,2.327-18.57,13.391-28.208,5.927-.9-13.172.862-29.5.862-29.5s-8.776-3.205,2.586-15.806c-3.056-4.874-8.031-9.44-10.578-27.661-1.489-10.537-2.116-25.6-1.1-47.9a15.392,15.392,0,0,1,4.858-4.566,23.41,23.41,0,0,1,.94-3.161c.431-.527,3.095-3.293,3.957-2.9s1.371,7.113,1.371,7.113-4.9,3.249-5.837,4.347c-.627.746-2.233,27,2.076,45.486,2.233,9.484,5.955,16.948,12.223,17.87,5.6-1.844,6.9-1.317,6.9-1.317,2.7-.22,12.027,5.8,20.921-17.123.392-1.01.784-2.107,1.175-3.205,9.207-26.651,9.207-41.886,9.207-41.886,2.429,0,3.957.132,4.584-.922a18.91,18.91,0,0,1,4.7-4.742,3.939,3.939,0,0,1,2.742.351C200.973,225.272,201.247,229,196.938,230.848Z" transform="translate(-118.181 -215.443)" fill="#ffbe55"/><path d="M164.878,303.411l-2.155,9.22.431,9.747,6.5-9.264-.862-10.186Z" transform="translate(-128.667 -235.89)" fill="#fcd2b1"/><g transform="translate(27.179 44.037)"><g transform="translate(2.136 14.747)"><path d="M156.848,300.85c-.823,0-1.058-2.854-1.058-4.347s.235-4.347,1.058-4.347,1.058,2.854,1.058,4.347S157.67,300.85,156.848,300.85Zm0-8.254c-.2,0-.666,1.317-.666,3.908s.47,3.908.666,3.908.666-1.317.666-3.908S157.044,292.6,156.848,292.6Z" transform="translate(-155.79 -292.156)" fill="#ffbe55"/></g><g transform="translate(18.63 14.747)"><path d="M180.97,300.85c-.823,0-1.058-2.854-1.058-4.347s.235-4.347,1.058-4.347,1.058,2.854,1.058,4.347S181.792,300.85,180.97,300.85Zm0-8.254c-.2,0-.666,1.317-.666,3.908s.47,3.908.666,3.908.666-1.317.666-3.908S181.166,292.6,180.97,292.6Z" transform="translate(-179.912 -292.156)" fill="#ffbe55"/></g><path d="M174.331,286.37c0,5.576-3.879,13.7-8.7,13.7-4.78,0-8.7-8.123-8.7-13.7s3.879-10.142,8.7-10.142S174.331,280.794,174.331,286.37Z" transform="translate(-154.016 -273.686)" fill="#ffe3ca"/><path d="M162.723,274c1.293,5.839,10.421,18.484,14.77,15.06,0-7.771-.431-15.586-6.5-16.069C164.878,272.555,162.723,274,162.723,274Z" transform="translate(-155.846 -272.911)" fill="#0e538c"/><path d="M162.128,280.264s-5.211,11.108-8.7,8.869,6.072-14.8,6.072-14.8Z" transform="translate(-152.665 -273.244)" fill="#0e538c"/></g><path d="M219.075,232.559a43.558,43.558,0,0,1-5.877,2.2s-.118,26.431-6.817,46.672c-2.625-1.668-4.74-4.654-6.817-7.815.392-1.01.784-2.107,1.175-3.205,9.207-26.651,9.207-41.886,9.207-41.886,2.429,0,3.957.132,4.584-.922.313-.527,1.254-3.337,1.254-3.337a10.267,10.267,0,0,1,3.448-1.4,3.938,3.938,0,0,1,2.742.351C223.11,226.983,223.384,230.715,219.075,232.559Z" transform="translate(-140.318 -217.153)" fill="#fcd2b1"/><path d="M137.37,272.427a28.667,28.667,0,0,1-6.268,1.581c-1.489-10.537-2.116-25.6-1.1-47.9a15.392,15.392,0,0,1,4.858-4.566,23.414,23.414,0,0,1,.94-3.161c.431-.527,3.1-3.293,3.957-2.9s1.371,7.113,1.371,7.113-4.9,3.249-5.837,4.347C134.667,227.687,133.061,253.943,137.37,272.427Z" transform="translate(-118.163 -215.443)" fill="#fcd2b1"/></g></svg>